<svg preserveAspectRatio="xMidYMid" viewBox="0 0 56 56" fill="none" xmlns="http://www.w3.org/2000/svg"><g clip-path="url(#clip0_14874_72680)"><path d="M17.24 13.34H38.83C41.69 13.34 44.02 15.67 44.02 18.53V42.02C44.02 44.29 41.32 45.47 39.66 43.93L37.91 42.31C37.43 41.86 36.80 41.61 36.14 41.61H14.65C13.21 41.61 12.05 40.45 12.05 39.02V18.53C12.05 15.67 14.38 13.34 17.24 13.34Z" fill="#DEAE93"></path><circle cx="6.23284" cy="6.23284" r="6.23284" transform="matrix(1 0 0 -1 14.95 35.084)" fill="white"></circle><mask id="mask0_14874_72680" maskUnits="userSpaceOnUse" x="14" y="21" width="14" height="15" style="mask-type: alpha;"><ellipse cx="6.66855" cy="6.66852" rx="6.66855" ry="6.66852" transform="matrix(1 0 0 -1 14.5143 35.084)" fill="white"></ellipse></mask><g mask="url(#mask0_14874_72680)"><ellipse cx="6.05032" cy="6.05029" rx="6.05032" ry="6.05029" transform="matrix(1 0 0 -1 15.1349 40.6602)" fill="black"></ellipse></g><circle cx="6.23284" cy="6.23284" r="6.23284" transform="matrix(1 0 0 -1 28.58 35.084)" fill="white"></circle><mask id="mask1_14874_72680" maskUnits="userSpaceOnUse" x="28" y="21" width="14" height="15" style="mask-type: alpha;"><ellipse cx="6.66855" cy="6.66852" rx="6.66855" ry="6.66852" transform="matrix(1 0 0 -1 28.1443 35.084)" fill="white"></ellipse></mask><g mask="url(#mask1_14874_72680)"><ellipse cx="6.05032" cy="6.05029" rx="6.05032" ry="6.05029" transform="matrix(1 0 0 -1 28.7649 40.6602)" fill="black"></ellipse></g></g><defs><clipPath id="clip0_14874_72680"><rect width="32" height="32" fill="white" transform="translate(12 13)"></rect></clipPath></defs></svg>